<?xml version="1.0" standalone="no"?>
<!DOCTYPE svg PUBLIC "-//W3C//DTD SVG 20010904//EN"
 "http://www.w3.org/TR/2001/REC-SVG-20010904/DTD/svg10.dtd">
<svg version="1.0" xmlns="http://www.w3.org/2000/svg"
 width="422.000000pt" height="422.000000pt" viewBox="0 0 422.000000 422.000000"
 preserveAspectRatio="xMidYMid meet">
<metadata>
Created by potrace 1.14, written by Peter Selinger 2001-2017
</metadata>
<g transform="translate(0.000000,422.000000) scale(0.100000,-0.100000)"
fill="#000000" stroke="none">
<path d="M30 2105 l0 -2105 1055 0 1055 0 0 355 0 355 1030 0 1030 0 -2 1397
-3 1398 -1027 3 -1028 2 0 350 0 350 -1055 0 -1055 0 0 -2105z m2060 5 l0
-2060 -1005 0 -1005 0 0 2060 0 2060 1005 0 1005 0 0 -2060z m2060 0 l0 -1350
-1005 0 -1005 0 0 1350 0 1350 1005 0 1005 0 0 -1350z"/>
</g>
</svg>
